<?xml version="1.0" encoding="UTF-8" standalone="no"?>
<!-- Created with Inkscape (http://www.inkscape.org/) -->

<svg
   xmlns:dc="http://purl.org/dc/elements/1.1/"
   xmlns:cc="http://creativecommons.org/ns#"
   xmlns:rdf="http://www.w3.org/1999/02/22-rdf-syntax-ns#"
   xmlns:svg="http://www.w3.org/2000/svg"
   xmlns="http://www.w3.org/2000/svg"
   xmlns:sodipodi="http://sodipodi.sourceforge.net/DTD/sodipodi-0.dtd"
   xmlns:inkscape="http://www.inkscape.org/namespaces/inkscape"
   width="48"
   height="48"
   id="svg2"
   version="1.1"
   inkscape:version="0.48.3.1 r9886"
   sodipodi:docname="calendar.svg">
  <defs
     id="defs4" />
  <sodipodi:namedview
     id="base"
     pagecolor="#ffffff"
     bordercolor="#666666"
     borderopacity="1.0"
     inkscape:pageopacity="0.0"
     inkscape:pageshadow="2"
     inkscape:zoom="11.6875"
     inkscape:cx="24"
     inkscape:cy="23.664147"
     inkscape:document-units="px"
     inkscape:current-layer="layer1"
     showgrid="true"
     fit-margin-top="0"
     fit-margin-left="0"
     fit-margin-right="0"
     fit-margin-bottom="0"
     inkscape:window-width="1366"
     inkscape:window-height="718"
     inkscape:window-x="0"
     inkscape:window-y="25"
     inkscape:window-maximized="1"
     inkscape:snap-to-guides="false">
    <inkscape:grid
       type="xygrid"
       id="grid3060"
       empspacing="5"
       visible="true"
       enabled="true"
       snapvisiblegridlinesonly="true" />
    <inkscape:grid
       type="xygrid"
       id="grid3062"
       empspacing="5"
       visible="true"
       enabled="true"
       snapvisiblegridlinesonly="true"
       originy="0.5px"
       originx="0.5px"
       empcolor="#0000ff"
       empopacity="0.1254902"
       dotted="true" />
  </sodipodi:namedview>
  <metadata
     id="metadata7">
    <rdf:RDF>
      <cc:Work
         rdf:about="">
        <dc:format>image/svg+xml</dc:format>
        <dc:type
           rdf:resource="http://purl.org/dc/dcmitype/StillImage" />
        <dc:title></dc:title>
      </cc:Work>
    </rdf:RDF>
  </metadata>
  <g
     inkscape:label="Layer 1"
     inkscape:groupmode="layer"
     id="layer1"
     transform="translate(-773.14288,120.20924)">
    <path
       style="fill:#000000;fill-opacity:1;stroke:none"
       d="m 821.14288,-108.20924 c 0,-3.324 -2.676,-6 -6,-6 l 0,-3 c 0,-1.662 -1.338,-3 -3,-3 l -3,0 c -1.662,0 -3,1.338 -3,3 l 0,3 -18,0 0,-3 c 0,-1.662 -1.338,-3 -3,-3 l -3,0 c -1.662,0 -3,1.338 -3,3 l 0,3 c -3.324,0 -6,2.676 -6,6 l 0,30 c 0,3.324 2.676,6 6,6 l 36,0 c 3.324,0 6,-2.676 6,-6 z m -3,2.5 0,27 c 0,1.939 -1.561,3.5 -3.5,3.5 l -35,0 c -1.939,0 -3.5,-1.561 -3.5,-3.5 l 0,-27 c 0,-1.939 1.561,-3.5 3.5,-3.5 l 35,0 c 1.939,0 3.5,1.561 3.5,3.5 z m -6,-10 0,3 c 0,0.831 -0.669,1.5 -1.5,1.5 -0.831,0 -1.5,-0.669 -1.5,-1.5 l 0,-3 c 0,-0.831 0.669,-1.5 1.5,-1.5 0.831,0 1.5,0.669 1.5,1.5 z m -27,0 0,3 c 0,0.831 -0.669,1.5 -1.5,1.5 -0.831,0 -1.5,-0.669 -1.5,-1.5 l 0,-3 c 0,-0.831 0.669,-1.5 1.5,-1.5 0.831,0 1.5,0.669 1.5,1.5 z"
       id="rect3868"
       inkscape:connector-curvature="0"
       sodipodi:nodetypes="scssssccsssccssssssssssssccsssssssssssssss" />
    <rect
       style="fill:#000000;fill-opacity:1;stroke:none"
       id="rect5787"
       width="6"
       height="6"
       x="786.14288"
       y="-99.209244"
       rx="1"
       ry="1" />
    <rect
       style="fill:#000000;fill-opacity:1;stroke:none"
       id="rect5787-7"
       width="6"
       height="6"
       x="794.14288"
       y="-99.209244"
       rx="1"
       ry="1" />
    <rect
       style="fill:#000000;fill-opacity:1;stroke:none"
       id="rect5787-4"
       width="6"
       height="6"
       x="802.14288"
       y="-99.209244"
       rx="1"
       ry="1" />
    <rect
       style="fill:#000000;fill-opacity:1;stroke:none"
       id="rect5787-2"
       width="6"
       height="6"
       x="778.14288"
       y="-91.209244"
       rx="1"
       ry="1" />
    <rect
       style="fill:#000000;fill-opacity:1;stroke:none"
       id="rect5787-0"
       width="6"
       height="6"
       x="786.14288"
       y="-91.209244"
       rx="1"
       ry="1" />
    <rect
       style="fill:#000000;fill-opacity:1;stroke:none"
       id="rect5787-7-4"
       width="6"
       height="6"
       x="794.14288"
       y="-91.209244"
       rx="1"
       ry="1" />
    <rect
       style="fill:#000000;fill-opacity:1;stroke:none"
       id="rect5787-4-6"
       width="6"
       height="6"
       x="802.14288"
       y="-91.209244"
       rx="1"
       ry="1" />
    <rect
       style="fill:#000000;fill-opacity:1;stroke:none"
       id="rect5787-44"
       width="6"
       height="6"
       x="778.14288"
       y="-83.209244"
       rx="1"
       ry="1" />
    <rect
       style="fill:#000000;fill-opacity:1;stroke:none"
       id="rect5787-7-2"
       width="6"
       height="6"
       x="786.14288"
       y="-83.209244"
       rx="1"
       ry="1" />
    <rect
       style="fill:#000000;fill-opacity:1;stroke:none"
       id="rect5787-4-4"
       width="6"
       height="6"
       x="794.14288"
       y="-83.209244"
       rx="1"
       ry="1" />
    <rect
       style="fill:#000000;fill-opacity:1;stroke:none"
       id="rect5787-4-3"
       width="6"
       height="6"
       x="810.14288"
       y="-99.209244"
       rx="1"
       ry="1" />
    <rect
       style="fill:#000000;fill-opacity:1;stroke:none"
       id="rect5787-4-6-4"
       width="6"
       height="6"
       x="810.14288"
       y="-91.209244"
       rx="1"
       ry="1" />
    <rect
       style="fill:#000000;fill-opacity:1;stroke:none"
       id="rect5787-1"
       width="6"
       height="6"
       x="786.14288"
       y="-107.20924"
       rx="1"
       ry="1" />
    <rect
       style="fill:#000000;fill-opacity:1;stroke:none"
       id="rect5787-7-9"
       width="6"
       height="6"
       x="794.14288"
       y="-107.20924"
       rx="1"
       ry="1" />
    <rect
       style="fill:#000000;fill-opacity:1;stroke:none"
       id="rect5787-4-0"
       width="6"
       height="6"
       x="802.14288"
       y="-107.20924"
       rx="1"
       ry="1" />
    <rect
       style="fill:#000000;fill-opacity:1;stroke:none"
       id="rect5787-4-3-0"
       width="6"
       height="6"
       x="810.14288"
       y="-107.20924"
       rx="1"
       ry="1" />
    <rect
       style="fill:#000000;fill-opacity:1;stroke:none"
       id="rect5787-4-3-0-2"
       width="6"
       height="6"
       x="778.14288"
       y="-99.209244"
       rx="1"
       ry="1" />
  </g>
</svg>
