<?xml version="1.0" encoding="UTF-8" standalone="no"?>
<svg xmlns="http://www.w3.org/2000/svg" version="1.1" width="48" height="48">
  <defs>
    <linearGradient x1="0" y1="0" x2="0" y2="48" id="bg" gradientUnits="userSpaceOnUse">
      <stop style="stop-color:#000;stop-opacity:0.75" offset="0" />
      <stop style="stop-color:#000;stop-opacity:1" offset="1" />
    </linearGradient>
  </defs>
  <path style="fill:url(#bg)"
     d="M 12,0 C 8.676,0 6,2.676 6,6 L 3,6 C 1.338,6 0,7.338 0,9 l 0,3 c 0,1.662 1.338,3 3,3 l 3,0 0,3 -3,0 c -1.662,0 -3,1.338 -3,3 l 0,3 c 0,1.662 1.338,3 3,3 l 3,0 0,3 -3,0 c -1.662,0 -3,1.338 -3,3 l 0,3 c 0,1.662 1.338,3 3,3 l 3,0 0,3 c 0,3.324 2.676,6 6,6 l 30,0 c 3.324,0 6,-2.676 6,-6 L 48,6 C 48,2.676 45.324,0 42,0 L 12,0 z m 3.5,3 26,0 C 43.439,3 45,4.561 45,6.5 l 0,35 c 0,1.939002 -1.561,3.5 -3.5,3.5 l -26,0 C 13.561,45 12,43.439002 12,41.5 l 0,-5.5 0,-3 0,-9 0,-3 0,-9 0,-3 0,-2.5 C 12,4.561 13.561,3 15.5,3 z m -11,6 3,0 C 8.331,9 9,9.669 9,10.5 9,11.331 8.331,12 7.5,12 l -3,0 C 3.669,12 3,11.331 3,10.5 3,9.669 3.669,9 4.5,9 z M 18.6875,9 A 1.5081161,1.5081161 0 0 0 19,12 l 19,0 A 1.50015,1.50015 0 1 0 38,9 L 19,9 A 1.50015,1.50015 0 0 0 18.84375,9 1.5020331,1.5020331 0 0 0 18.6875,9 z m 0,9 A 1.5081161,1.5081161 0 0 0 19,21 l 19,0 a 1.50015,1.50015 0 1 0 0,-3 l -19,0 a 1.50015,1.50015 0 0 0 -0.15625,0 1.5020331,1.5020331 0 0 0 -0.15625,0 z M 4.5,21 l 3,0 C 8.331,21 9,21.669 9,22.5 9,23.331 8.331,24 7.5,24 l -3,0 C 3.669,24 3,23.331 3,22.5 3,21.669 3.669,21 4.5,21 z m 14.1875,6 A 1.5081161,1.5081161 0 0 0 19,30 l 19,0 a 1.50015,1.50015 0 1 0 0,-3 l -19,0 a 1.50015,1.50015 0 0 0 -0.15625,0 1.5020331,1.5020331 0 0 0 -0.15625,0 z M 4.5,33 l 3,0 C 8.331,33 9,33.669 9,34.5 9,35.331 8.331,36 7.5,36 l -3,0 C 3.669,36 3,35.331 3,34.5 3,33.669 3.669,33 4.5,33 z m 14.1875,3 A 1.5081161,1.5081161 0 0 0 19,39 l 19,0 a 1.50015,1.50015 0 1 0 0,-3 l -19,0 a 1.50015,1.50015 0 0 0 -0.15625,0 1.5020331,1.5020331 0 0 0 -0.15625,0 z" />
</svg>

