<?xml version="1.0" encoding="UTF-8" standalone="no"?>
<!-- Created with Inkscape (http://www.inkscape.org/) -->

<svg
   xmlns:dc="http://purl.org/dc/elements/1.1/"
   xmlns:cc="http://creativecommons.org/ns#"
   xmlns:rdf="http://www.w3.org/1999/02/22-rdf-syntax-ns#"
   xmlns:svg="http://www.w3.org/2000/svg"
   xmlns="http://www.w3.org/2000/svg"
   xmlns:sodipodi="http://sodipodi.sourceforge.net/DTD/sodipodi-0.dtd"
   xmlns:inkscape="http://www.inkscape.org/namespaces/inkscape"
   width="48"
   height="48"
   id="svg2"
   version="1.1"
   inkscape:version="0.48.3.1 r9886"
   sodipodi:docname="todo.svg">
  <defs
     id="defs4" />
  <sodipodi:namedview
     id="base"
     pagecolor="#ffffff"
     bordercolor="#666666"
     borderopacity="1.0"
     inkscape:pageopacity="0.0"
     inkscape:pageshadow="2"
     inkscape:zoom="11.6875"
     inkscape:cx="31.805774"
     inkscape:cy="24"
     inkscape:document-units="px"
     inkscape:current-layer="layer1"
     showgrid="true"
     fit-margin-top="0"
     fit-margin-left="0"
     fit-margin-right="0"
     fit-margin-bottom="0"
     inkscape:window-width="1366"
     inkscape:window-height="718"
     inkscape:window-x="0"
     inkscape:window-y="25"
     inkscape:window-maximized="1">
    <inkscape:grid
       type="xygrid"
       id="grid3060"
       empspacing="5"
       visible="true"
       enabled="true"
       snapvisiblegridlinesonly="true" />
    <inkscape:grid
       type="xygrid"
       id="grid3062"
       empspacing="5"
       visible="true"
       enabled="true"
       snapvisiblegridlinesonly="true"
       originy="0.5px"
       originx="0.5px"
       empcolor="#0000ff"
       empopacity="0.1254902"
       dotted="true" />
  </sodipodi:namedview>
  <metadata
     id="metadata7">
    <rdf:RDF>
      <cc:Work
         rdf:about="">
        <dc:format>image/svg+xml</dc:format>
        <dc:type
           rdf:resource="http://purl.org/dc/dcmitype/StillImage" />
        <dc:title />
      </cc:Work>
    </rdf:RDF>
  </metadata>
  <g
     inkscape:label="Layer 1"
     inkscape:groupmode="layer"
     id="layer1"
     transform="translate(-773.14288,120.20924)">
    <path
       style="fill:#000000;fill-opacity:1;stroke:none"
       d="M 6 0 C 2.676 0 0 2.676 0 6 L 0 42 C 0 45.324 2.676 48 6 48 L 42 48 C 45.324 48 48 45.324 48 42 L 48 19 L 42 25 L 42 38.5 C 42 38.98475 41.895391 39.455984 41.71875 39.875 C 41.542109 40.294016 41.285063 40.652437 40.96875 40.96875 C 40.652437 41.285063 40.294016 41.542109 39.875 41.71875 C 39.455984 41.895391 38.98475 42 38.5 42 L 9.5 42 C 9.0152495 42 8.544016 41.895391 8.125 41.71875 C 7.705984 41.542109 7.3475628 41.285063 7.03125 40.96875 C 6.7149372 40.652437 6.4578908 40.294016 6.28125 39.875 C 6.1046092 39.455984 6 38.98475 6 38.5 L 6 9.5 C 6 9.0152495 6.1046092 8.544016 6.28125 8.125 C 6.4578908 7.705984 6.7149372 7.3475628 7.03125 7.03125 C 7.3475628 6.7149372 7.705984 6.4578908 8.125 6.28125 C 8.544016 6.1046092 9.0152495 6 9.5 6 L 23 6 L 29 0 L 6 0 z "
       transform="translate(773.14288,-120.20924)"
       id="rect4193" />
    <path
       style="fill:#000000;fill-opacity:1;stroke:none"
       d="m 790.14288,-106.20924 7,7 16.5,-16.5 2,5.5 -19,24.5 -13.5,-13.5 z"
       id="path4212"
       inkscape:connector-curvature="0"
       sodipodi:nodetypes="ccccccc" />
  </g>
</svg>
